<mxfile host="app.diagrams.net" modified="2023-08-02T09:00:32.970Z" agent="Mozilla/5.0 (Windows NT 10.0; Win64; x64) AppleWebKit/537.36 (KHTML, like Gecko) Chrome/115.0.0.0 Safari/537.36 Edg/115.0.1901.188" etag="RuknuL4W3rKoe_wJP8_J" version="21.3.7" type="device">
  <diagram id="V-YOUjtMPDTWzh5M_KfL" name="алгоритм-схема">
    <mxGraphModel dx="1050" dy="1750" grid="1" gridSize="10" guides="1" tooltips="1" connect="1" arrows="1" fold="1" page="1" pageScale="1" pageWidth="827" pageHeight="1169" math="0" shadow="0">
      <root>
        <mxCell id="0" />
        <mxCell id="1" parent="0" />
        <mxCell id="bkPbzTL97L6vE0hDIoVn-4" style="edgeStyle=orthogonalEdgeStyle;rounded=0;orthogonalLoop=1;jettySize=auto;html=1;" edge="1" parent="1" source="U4z4Gsq-BLL1IjWz3D-a-1" target="zmH_221JmNT3DeekMkR2-1">
          <mxGeometry relative="1" as="geometry">
            <mxPoint x="330" y="50" as="targetPoint" />
          </mxGeometry>
        </mxCell>
        <mxCell id="U4z4Gsq-BLL1IjWz3D-a-1" value="Start" style="ellipse;whiteSpace=wrap;html=1;" vertex="1" parent="1">
          <mxGeometry x="270" y="-1140" width="120" height="80" as="geometry" />
        </mxCell>
        <mxCell id="cNbd6i2DJuzvIxiDECY5-17" value="" style="endArrow=none;dashed=1;html=1;dashPattern=1 3;strokeWidth=2;rounded=0;" edge="1" parent="1">
          <mxGeometry width="50" height="50" relative="1" as="geometry">
            <mxPoint x="40" y="-516" as="sourcePoint" />
            <mxPoint x="409.5" y="-516" as="targetPoint" />
          </mxGeometry>
        </mxCell>
        <mxCell id="cNbd6i2DJuzvIxiDECY5-18" value="" style="endArrow=none;dashed=1;html=1;rounded=0;" edge="1" parent="1">
          <mxGeometry width="50" height="50" relative="1" as="geometry">
            <mxPoint x="580" y="-516" as="sourcePoint" />
            <mxPoint x="399.5" y="-516" as="targetPoint" />
          </mxGeometry>
        </mxCell>
        <mxCell id="cNbd6i2DJuzvIxiDECY5-19" value="" style="endArrow=none;dashed=1;html=1;rounded=0;" edge="1" parent="1">
          <mxGeometry width="50" height="50" relative="1" as="geometry">
            <mxPoint x="580.5" y="-124" as="sourcePoint" />
            <mxPoint x="580" y="-515" as="targetPoint" />
          </mxGeometry>
        </mxCell>
        <mxCell id="cNbd6i2DJuzvIxiDECY5-20" value="" style="endArrow=none;dashed=1;html=1;rounded=0;" edge="1" parent="1">
          <mxGeometry width="50" height="50" relative="1" as="geometry">
            <mxPoint x="580" y="-125" as="sourcePoint" />
            <mxPoint x="40" y="-125" as="targetPoint" />
          </mxGeometry>
        </mxCell>
        <mxCell id="cNbd6i2DJuzvIxiDECY5-21" value="" style="endArrow=none;dashed=1;html=1;rounded=0;" edge="1" parent="1">
          <mxGeometry width="50" height="50" relative="1" as="geometry">
            <mxPoint x="40" y="-125" as="sourcePoint" />
            <mxPoint x="40" y="-520" as="targetPoint" />
          </mxGeometry>
        </mxCell>
        <mxCell id="cNbd6i2DJuzvIxiDECY5-22" value="void PrintNewArray(string [] array)" style="text;html=1;align=center;verticalAlign=middle;resizable=0;points=[];autosize=1;strokeColor=none;fillColor=none;" vertex="1" parent="1">
          <mxGeometry x="240" y="-515" width="200" height="30" as="geometry" />
        </mxCell>
        <mxCell id="zmH_221JmNT3DeekMkR2-2" style="edgeStyle=orthogonalEdgeStyle;rounded=0;orthogonalLoop=1;jettySize=auto;html=1;" edge="1" parent="1" source="zmH_221JmNT3DeekMkR2-1" target="zmH_221JmNT3DeekMkR2-3">
          <mxGeometry relative="1" as="geometry">
            <mxPoint x="330" y="50" as="targetPoint" />
          </mxGeometry>
        </mxCell>
        <mxCell id="zmH_221JmNT3DeekMkR2-1" value="&lt;font style=&quot;font-size: 10px;&quot;&gt;output = Введите строки через пробел&lt;/font&gt;" style="shape=parallelogram;perimeter=parallelogramPerimeter;whiteSpace=wrap;html=1;fixedSize=1;" vertex="1" parent="1">
          <mxGeometry x="245" y="-1030" width="170" height="80" as="geometry" />
        </mxCell>
        <mxCell id="zmH_221JmNT3DeekMkR2-4" style="edgeStyle=orthogonalEdgeStyle;rounded=0;orthogonalLoop=1;jettySize=auto;html=1;entryX=0.5;entryY=0;entryDx=0;entryDy=0;" edge="1" parent="1" source="zmH_221JmNT3DeekMkR2-3" target="T0VPcXfAXI1-NPFWpgqH-7">
          <mxGeometry relative="1" as="geometry">
            <mxPoint x="330" y="-821" as="targetPoint" />
          </mxGeometry>
        </mxCell>
        <mxCell id="zmH_221JmNT3DeekMkR2-3" value="input" style="rounded=1;whiteSpace=wrap;html=1;" vertex="1" parent="1">
          <mxGeometry x="270" y="-920" width="120" height="60" as="geometry" />
        </mxCell>
        <mxCell id="zmH_221JmNT3DeekMkR2-6" value="no" style="edgeStyle=orthogonalEdgeStyle;rounded=0;orthogonalLoop=1;jettySize=auto;html=1;entryX=-0.02;entryY=0.365;entryDx=0;entryDy=0;entryPerimeter=0;" edge="1" parent="1" source="zmH_221JmNT3DeekMkR2-5" target="zmH_221JmNT3DeekMkR2-7">
          <mxGeometry relative="1" as="geometry">
            <mxPoint x="560" y="-445" as="targetPoint" />
          </mxGeometry>
        </mxCell>
        <mxCell id="zmH_221JmNT3DeekMkR2-8" value="yes" style="edgeStyle=orthogonalEdgeStyle;rounded=0;orthogonalLoop=1;jettySize=auto;html=1;" edge="1" parent="1" source="zmH_221JmNT3DeekMkR2-5">
          <mxGeometry relative="1" as="geometry">
            <mxPoint x="230" y="-375" as="targetPoint" />
          </mxGeometry>
        </mxCell>
        <mxCell id="zmH_221JmNT3DeekMkR2-5" value="for&lt;br&gt;i = 0&lt;br&gt;i &amp;lt; length&lt;br&gt;i++" style="rhombus;whiteSpace=wrap;html=1;" vertex="1" parent="1">
          <mxGeometry x="155" y="-485" width="150" height="80" as="geometry" />
        </mxCell>
        <mxCell id="zmH_221JmNT3DeekMkR2-7" value="Print(arr)" style="shape=document;whiteSpace=wrap;html=1;boundedLbl=1;" vertex="1" parent="1">
          <mxGeometry x="590" y="-475" width="120" height="80" as="geometry" />
        </mxCell>
        <mxCell id="zmH_221JmNT3DeekMkR2-10" value="yes" style="edgeStyle=orthogonalEdgeStyle;rounded=0;orthogonalLoop=1;jettySize=auto;html=1;" edge="1" parent="1" source="zmH_221JmNT3DeekMkR2-9">
          <mxGeometry relative="1" as="geometry">
            <mxPoint x="330" y="-335" as="targetPoint" />
          </mxGeometry>
        </mxCell>
        <mxCell id="zmH_221JmNT3DeekMkR2-11" value="no" style="edgeStyle=orthogonalEdgeStyle;rounded=0;orthogonalLoop=1;jettySize=auto;html=1;entryX=0;entryY=0.5;entryDx=0;entryDy=0;" edge="1" parent="1" source="zmH_221JmNT3DeekMkR2-9" target="zmH_221JmNT3DeekMkR2-5">
          <mxGeometry relative="1" as="geometry">
            <mxPoint x="90" y="-445" as="targetPoint" />
            <Array as="points">
              <mxPoint x="91" y="-335" />
              <mxPoint x="91" y="-445" />
            </Array>
          </mxGeometry>
        </mxCell>
        <mxCell id="zmH_221JmNT3DeekMkR2-9" value="i &amp;lt; arr[i] &amp;lt;= 2" style="rhombus;whiteSpace=wrap;html=1;" vertex="1" parent="1">
          <mxGeometry x="180" y="-375" width="100" height="80" as="geometry" />
        </mxCell>
        <mxCell id="zmH_221JmNT3DeekMkR2-13" value="yes" style="edgeStyle=orthogonalEdgeStyle;rounded=0;orthogonalLoop=1;jettySize=auto;html=1;" edge="1" parent="1" source="zmH_221JmNT3DeekMkR2-12">
          <mxGeometry relative="1" as="geometry">
            <mxPoint x="460" y="-335" as="targetPoint" />
          </mxGeometry>
        </mxCell>
        <mxCell id="zmH_221JmNT3DeekMkR2-14" value="no" style="edgeStyle=orthogonalEdgeStyle;rounded=0;orthogonalLoop=1;jettySize=auto;html=1;" edge="1" parent="1" source="zmH_221JmNT3DeekMkR2-12">
          <mxGeometry relative="1" as="geometry">
            <mxPoint x="380" y="-265" as="targetPoint" />
          </mxGeometry>
        </mxCell>
        <mxCell id="zmH_221JmNT3DeekMkR2-12" value="i &amp;lt; length" style="rhombus;whiteSpace=wrap;html=1;" vertex="1" parent="1">
          <mxGeometry x="330" y="-375" width="100" height="80" as="geometry" />
        </mxCell>
        <mxCell id="T0VPcXfAXI1-NPFWpgqH-1" value="Print(arr[i], )" style="shape=document;whiteSpace=wrap;html=1;boundedLbl=1;" vertex="1" parent="1">
          <mxGeometry x="460" y="-365" width="110" height="80" as="geometry" />
        </mxCell>
        <mxCell id="T0VPcXfAXI1-NPFWpgqH-2" value="Print(arr[i])" style="shape=document;whiteSpace=wrap;html=1;boundedLbl=1;" vertex="1" parent="1">
          <mxGeometry x="320" y="-265" width="120" height="80" as="geometry" />
        </mxCell>
        <mxCell id="T0VPcXfAXI1-NPFWpgqH-4" value="void PrintArrStr(string [] array)" style="text;html=1;align=center;verticalAlign=middle;resizable=0;points=[];autosize=1;strokeColor=none;fillColor=none;" vertex="1" parent="1">
          <mxGeometry x="330" y="-820" width="180" height="30" as="geometry" />
        </mxCell>
        <mxCell id="T0VPcXfAXI1-NPFWpgqH-5" value="yes" style="edgeStyle=orthogonalEdgeStyle;rounded=0;orthogonalLoop=1;jettySize=auto;html=1;" edge="1" parent="1" source="T0VPcXfAXI1-NPFWpgqH-7">
          <mxGeometry relative="1" as="geometry">
            <mxPoint x="330" y="-658" as="targetPoint" />
          </mxGeometry>
        </mxCell>
        <mxCell id="T0VPcXfAXI1-NPFWpgqH-6" value="no" style="edgeStyle=orthogonalEdgeStyle;rounded=0;orthogonalLoop=1;jettySize=auto;html=1;entryX=0.01;entryY=0.358;entryDx=0;entryDy=0;entryPerimeter=0;" edge="1" parent="1" source="T0VPcXfAXI1-NPFWpgqH-7" target="T0VPcXfAXI1-NPFWpgqH-16">
          <mxGeometry relative="1" as="geometry">
            <mxPoint x="450" y="-718" as="targetPoint" />
          </mxGeometry>
        </mxCell>
        <mxCell id="T0VPcXfAXI1-NPFWpgqH-7" value="for&lt;br&gt;i = 0&lt;br&gt;i &amp;lt; length&lt;br&gt;i++" style="rhombus;whiteSpace=wrap;html=1;" vertex="1" parent="1">
          <mxGeometry x="255" y="-758" width="150" height="80" as="geometry" />
        </mxCell>
        <mxCell id="T0VPcXfAXI1-NPFWpgqH-8" value="yes" style="edgeStyle=orthogonalEdgeStyle;rounded=0;orthogonalLoop=1;jettySize=auto;html=1;" edge="1" parent="1" source="T0VPcXfAXI1-NPFWpgqH-10">
          <mxGeometry relative="1" as="geometry">
            <mxPoint x="430" y="-618" as="targetPoint" />
          </mxGeometry>
        </mxCell>
        <mxCell id="T0VPcXfAXI1-NPFWpgqH-9" value="no" style="edgeStyle=orthogonalEdgeStyle;rounded=0;orthogonalLoop=1;jettySize=auto;html=1;" edge="1" parent="1" source="T0VPcXfAXI1-NPFWpgqH-10">
          <mxGeometry relative="1" as="geometry">
            <mxPoint x="240" y="-618" as="targetPoint" />
          </mxGeometry>
        </mxCell>
        <mxCell id="T0VPcXfAXI1-NPFWpgqH-10" value="i &amp;lt; length" style="rhombus;whiteSpace=wrap;html=1;" vertex="1" parent="1">
          <mxGeometry x="280" y="-658" width="100" height="80" as="geometry" />
        </mxCell>
        <mxCell id="T0VPcXfAXI1-NPFWpgqH-11" value="Print(array[i], )" style="shape=document;whiteSpace=wrap;html=1;boundedLbl=1;" vertex="1" parent="1">
          <mxGeometry x="430" y="-658" width="120" height="80" as="geometry" />
        </mxCell>
        <mxCell id="T0VPcXfAXI1-NPFWpgqH-12" value="Print(array[i])" style="shape=document;whiteSpace=wrap;html=1;boundedLbl=1;" vertex="1" parent="1">
          <mxGeometry x="120" y="-648" width="120" height="80" as="geometry" />
        </mxCell>
        <mxCell id="T0VPcXfAXI1-NPFWpgqH-13" value="" style="endArrow=none;dashed=1;html=1;rounded=0;" edge="1" parent="1">
          <mxGeometry width="50" height="50" relative="1" as="geometry">
            <mxPoint x="40" y="-548" as="sourcePoint" />
            <mxPoint x="40" y="-818" as="targetPoint" />
          </mxGeometry>
        </mxCell>
        <mxCell id="T0VPcXfAXI1-NPFWpgqH-14" value="" style="endArrow=none;dashed=1;html=1;rounded=0;" edge="1" parent="1">
          <mxGeometry width="50" height="50" relative="1" as="geometry">
            <mxPoint x="600" y="-548" as="sourcePoint" />
            <mxPoint x="600" y="-818" as="targetPoint" />
          </mxGeometry>
        </mxCell>
        <mxCell id="T0VPcXfAXI1-NPFWpgqH-15" value="" style="endArrow=none;dashed=1;html=1;rounded=0;" edge="1" parent="1">
          <mxGeometry width="50" height="50" relative="1" as="geometry">
            <mxPoint x="600" y="-548" as="sourcePoint" />
            <mxPoint x="40" y="-548" as="targetPoint" />
          </mxGeometry>
        </mxCell>
        <mxCell id="T0VPcXfAXI1-NPFWpgqH-16" value="Print(array)" style="shape=document;whiteSpace=wrap;html=1;boundedLbl=1;" vertex="1" parent="1">
          <mxGeometry x="640" y="-748" width="120" height="80" as="geometry" />
        </mxCell>
        <mxCell id="T0VPcXfAXI1-NPFWpgqH-17" value="" style="endArrow=none;dashed=1;html=1;rounded=0;" edge="1" parent="1">
          <mxGeometry width="50" height="50" relative="1" as="geometry">
            <mxPoint x="40" y="-818" as="sourcePoint" />
            <mxPoint x="600" y="-818" as="targetPoint" />
          </mxGeometry>
        </mxCell>
        <mxCell id="T0VPcXfAXI1-NPFWpgqH-18" value="" style="endArrow=classic;html=1;rounded=0;" edge="1" parent="1">
          <mxGeometry width="50" height="50" relative="1" as="geometry">
            <mxPoint x="330" y="-550" as="sourcePoint" />
            <mxPoint x="330" y="-520" as="targetPoint" />
          </mxGeometry>
        </mxCell>
      </root>
    </mxGraphModel>
  </diagram>
</mxfile>
